<svg width="24.000000" height="24.000000" viewBox="0 0 24 24" fill="none" xmlns="http://www.w3.org/2000/svg" xmlns:xlink="http://www.w3.org/1999/xlink">
	<desc>
			Created with Pixso.
	</desc>
	<defs/>
	<rect id="Bag" width="24.000000" height="24.000000" fill="#FFFFFF" fill-opacity="0"/>
	<path id="Vector" d="M20.25 6.75C20.6642 6.75 21 7.08578 21 7.5L21 19.5C21 19.9142 20.6642 20.25 20.25 20.25L3.75 20.25C3.33582 20.25 3 19.9142 3 19.5L3 7.5C3 7.08578 3.33582 6.75 3.75 6.75L20.25 6.75Z" stroke="#FFFFFF" stroke-opacity="1.000000" stroke-width="1.500000" stroke-linejoin="round"/>
	<path id="Vector" d="M8.25 9.75L8.25 6.75C8.25 5.75543 8.64514 4.80161 9.34839 4.09836C10.0516 3.39508 11.0055 3 12 3C12.9945 3 13.9484 3.39508 14.6516 4.09836C15.3549 4.80161 15.75 5.75543 15.75 6.75L15.75 9.75" stroke="#FFFFFF" stroke-opacity="1.000000" stroke-width="1.500000" stroke-linejoin="round" stroke-linecap="round"/>
</svg>
