<svg width="24.000000" height="24.000000" viewBox="0 0 24 24" fill="none" xmlns="http://www.w3.org/2000/svg" xmlns:xlink="http://www.w3.org/1999/xlink">
	<desc>
			Created with Pixso.
	</desc>
	<defs/>
	<path id="Vector" d="M19.5544 12.3432C21.283 10.5147 21.538 7.50665 19.9022 5.58505C19.4924 5.10236 18.994 4.71298 18.4374 4.44077C17.8807 4.16855 17.2775 4.01917 16.6644 4.00174C16.0514 3.98428 15.4414 4.09915 14.8717 4.33936C14.302 4.57953 13.7845 4.93997 13.3508 5.39868L12.0287 6.79736L10.8871 5.58975C9.15857 3.76129 6.31494 3.49152 4.49841 5.22186C4.04211 5.6553 3.67407 6.18253 3.41663 6.77139C3.1593 7.36026 3.01807 7.99844 3.00159 8.64694C2.98511 9.29544 3.09375 9.94073 3.3208 10.5434C3.54785 11.146 3.88855 11.6934 4.32227 12.1522L11.5376 19.7848C11.6677 19.9226 11.8445 20 12.0287 20C12.2128 20 12.3895 19.9226 12.5198 19.7848L19.5544 12.3432Z" stroke="#FFFFFF" stroke-opacity="1.000000" stroke-width="1.500000" stroke-linejoin="round"/>
</svg>
